<svg xmlns="http://www.w3.org/2000/svg" viewBox="0 0 66.31 66.89"><defs><style>.cls-1{fill:#084c76;}.cls-2{fill:#3382b9;}</style></defs><title>svg-logo-only</title><g id="Layer_2" data-name="Layer 2"><g id="Layer_1-2" data-name="Layer 1"><g id="Layer_1-2-2" data-name="Layer 1-2"><path class="cls-1" d="M33.44,66.89a33.08,33.08,0,0,1-12-2.23,3,3,0,0,1,2.17-5.6,27.11,27.11,0,0,0,9.83,1.82A27.44,27.44,0,0,0,33.44,6a27.07,27.07,0,0,0-9.83,1.82,3,3,0,1,1-2.17-5.6A33.07,33.07,0,0,1,33.44,0a33.45,33.45,0,0,1,0,66.89Z"/><path class="cls-2" d="M6.72,44.15H3a3,3,0,0,1,0-6H6.72a4.69,4.69,0,1,0,0-9.38H3a3,3,0,0,1,0-6H6.72a10.7,10.7,0,0,1,0,21.4h0Z"/></g></g></g></svg>