<svg xmlns="http://www.w3.org/2000/svg" viewBox="0 0 276.27 66.9"><defs><style>.cls-1{isolation:isolate;}.cls-2{fill:#3a3a3a;}.cls-3{fill:#084c76;}.cls-4{fill:#3382b9;}</style></defs><g id="Layer_2" data-name="Layer 2"><g id="Layer_1-2" data-name="Layer 1"><g id="Layer_2-2" data-name="Layer 2"><g id="Layer_1-2-2" data-name="Layer 1-2"><g class="cls-1"><path class="cls-2" d="M102.12,26.21a9.17,9.17,0,0,1-2.89-.43A6.7,6.7,0,0,1,97,24.53a6.17,6.17,0,0,1-1.5-1.91.63.63,0,0,1,0-.58.82.82,0,0,1,1-.35,1,1,0,0,1,.43.4,4.76,4.76,0,0,0,1.18,1.4,5.2,5.2,0,0,0,1.75.91,7.74,7.74,0,0,0,2.29.31,5.81,5.81,0,0,0,2.46-.47,3.53,3.53,0,0,0,1.6-1.4,4.23,4.23,0,0,0,.57-2.25,3.73,3.73,0,0,0-1.19-2.79,6.34,6.34,0,0,0-3.62-1.46,8.16,8.16,0,0,1-4.37-1.81A4.45,4.45,0,0,1,96,11.09a4.56,4.56,0,0,1,.73-2.58A4.91,4.91,0,0,1,98.81,6.8a7.31,7.31,0,0,1,3.09-.61,6.43,6.43,0,0,1,2.39.43,6.63,6.63,0,0,1,1.93,1.11,6,6,0,0,1,1.28,1.44.69.69,0,0,1,.08.58.62.62,0,0,1-.41.44.8.8,0,0,1-.55,0,.92.92,0,0,1-.45-.33,5,5,0,0,0-.9-1A4.72,4.72,0,0,0,103.9,8a5.63,5.63,0,0,0-2-.32,5.07,5.07,0,0,0-3.23.93,3.14,3.14,0,0,0-1.17,2.62A2.94,2.94,0,0,0,98,12.88a3.9,3.9,0,0,0,1.54,1.26,9.51,9.51,0,0,0,2.67.8,8.36,8.36,0,0,1,4.64,2,5,5,0,0,1,1.42,3.66,6.08,6.08,0,0,1-.44,2.35,4.79,4.79,0,0,1-1.25,1.77,5.55,5.55,0,0,1-1.94,1.12A7.58,7.58,0,0,1,102.12,26.21Z"/><path class="cls-2" d="M111,14.14a.63.63,0,0,1-.48-.19.63.63,0,0,1-.19-.49.62.62,0,0,1,.19-.48.63.63,0,0,1,.48-.19h6.78a.65.65,0,0,1,.68.67.66.66,0,0,1-.19.49.66.66,0,0,1-.49.19ZM117.72,26a5,5,0,0,1-2.45-.63,4.33,4.33,0,0,1-1.67-1.7,5,5,0,0,1-.6-2.46V8.71a.76.76,0,0,1,.21-.56.73.73,0,0,1,.54-.21.72.72,0,0,1,.77.77V21.17a3.23,3.23,0,0,0,.9,2.36,3.11,3.11,0,0,0,2.33.91h.54a.77.77,0,0,1,.57.21.76.76,0,0,1,.21.56.73.73,0,0,1-.21.54.77.77,0,0,1-.57.21Z"/><path class="cls-2" d="M128.27,26.14A7,7,0,0,1,125,25.4a5.52,5.52,0,0,1-2.26-2.16,6.74,6.74,0,0,1-.84-3.48V13a.74.74,0,0,1,.22-.54.75.75,0,0,1,1.28.54v6.72a5.37,5.37,0,0,0,.64,2.72,4.09,4.09,0,0,0,1.73,1.62,5.43,5.43,0,0,0,2.46.54,5.55,5.55,0,0,0,2.42-.52,4.42,4.42,0,0,0,1.7-1.42,3.38,3.38,0,0,0,.63-2h1.25a5.66,5.66,0,0,1-.93,2.79,6,6,0,0,1-2.13,1.95A6.14,6.14,0,0,1,128.27,26.14Zm5.5-.18a.72.72,0,0,1-.75-.75V13a.72.72,0,0,1,.21-.55.77.77,0,0,1,.54-.2.69.69,0,0,1,.75.75V25.21a.77.77,0,0,1-.2.54A.72.72,0,0,1,133.77,26Z"/><path class="cls-2" d="M145.27,26.12a7.08,7.08,0,0,1-3.59-.92,6.67,6.67,0,0,1-2.5-2.5,7,7,0,0,1-.91-3.58,7,7,0,0,1,.91-3.58,6.71,6.71,0,0,1,2.5-2.49,7.07,7.07,0,0,1,3.59-.91,6.69,6.69,0,0,1,3.24.78A5.72,5.72,0,0,1,150.74,15V7.19a.73.73,0,0,1,.22-.55.76.76,0,0,1,.53-.2.74.74,0,0,1,.55.2.72.72,0,0,1,.2.55V19.26a6.77,6.77,0,0,1-1,3.5,6.63,6.63,0,0,1-2.48,2.45A7,7,0,0,1,145.27,26.12Zm0-1.41a5.38,5.38,0,0,0,2.81-.73A5.27,5.27,0,0,0,150,22a5.67,5.67,0,0,0,.71-2.86,5.65,5.65,0,0,0-.71-2.86,5.29,5.29,0,0,0-1.95-2,5.69,5.69,0,0,0-5.61,0,5.53,5.53,0,0,0-2,2,6,6,0,0,0,0,5.72,5.5,5.5,0,0,0,2,2A5.42,5.42,0,0,0,145.27,24.71Z"/><path class="cls-2" d="M158,9.42a1.11,1.11,0,0,1-.81-.34,1.14,1.14,0,0,1-.34-.84,1,1,0,0,1,.36-.86,1.28,1.28,0,0,1,.81-.29,1.24,1.24,0,0,1,.79.29,1,1,0,0,1,.36.86A1.15,1.15,0,0,1,158,9.42ZM158,26a.72.72,0,0,1-.53-.21.74.74,0,0,1-.22-.54V13a.73.73,0,0,1,.22-.55.76.76,0,0,1,.53-.2.74.74,0,0,1,.55.2.72.72,0,0,1,.2.55V25.21a.72.72,0,0,1-.2.54A.71.71,0,0,1,158,26Z"/><path class="cls-2" d="M170,26.12a7,7,0,0,1-3.58-.92,6.6,6.6,0,0,1-2.5-2.5,7,7,0,0,1-.92-3.56,7.08,7.08,0,0,1,.92-3.59,6.6,6.6,0,0,1,2.5-2.5,7.5,7.5,0,0,1,7.16,0,6.71,6.71,0,0,1,2.49,2.5,7.07,7.07,0,0,1,.91,3.59,7,7,0,0,1-.91,3.56,6.71,6.71,0,0,1-2.49,2.5A7,7,0,0,1,170,26.12Zm0-1.41A5.3,5.3,0,0,0,174.76,22a5.78,5.78,0,0,0,.71-2.86,5.7,5.7,0,0,0-.71-2.84,5.5,5.5,0,0,0-9.54,0,5.93,5.93,0,0,0,0,5.7A5.36,5.36,0,0,0,170,24.71Z"/></g><g class="cls-1"><path class="cls-2" d="M97.57,56a1.24,1.24,0,0,1-.92-.37,1.26,1.26,0,0,1-.38-.92V37.74a1.26,1.26,0,0,1,1.3-1.3h4.53a10.47,10.47,0,0,1,3.91.71,9,9,0,0,1,5.06,5.11,11.41,11.41,0,0,1,0,7.87A8.94,8.94,0,0,1,106,55.25a10.27,10.27,0,0,1-3.91.71Zm1.3-2.29h3.23a7.13,7.13,0,0,0,3.71-1,6.89,6.89,0,0,0,2.54-2.65,8.6,8.6,0,0,0,0-7.74,6.88,6.88,0,0,0-2.54-2.62,7.21,7.21,0,0,0-3.71-.95H98.87Z"/><path class="cls-2" d="M122,56.06a7.57,7.57,0,0,1-3.69-.88,6.52,6.52,0,0,1-2.52-2.45,7,7,0,0,1-.92-3.59,7.28,7.28,0,0,1,.87-3.61,6.3,6.3,0,0,1,2.38-2.45,6.87,6.87,0,0,1,3.5-.89,6.3,6.3,0,0,1,3.35.86,5.61,5.61,0,0,1,2.14,2.38,7.89,7.89,0,0,1,.74,3.49,1,1,0,0,1-.33.78,1.12,1.12,0,0,1-.82.31H116.64V48h10l-1,.7a5.33,5.33,0,0,0-.5-2.23,3.81,3.81,0,0,0-1.35-1.56,3.73,3.73,0,0,0-2.13-.58,4.57,4.57,0,0,0-2.43.62,4,4,0,0,0-1.54,1.72,5.56,5.56,0,0,0-.53,2.46,4.75,4.75,0,0,0,.63,2.45,4.6,4.6,0,0,0,1.72,1.7,5,5,0,0,0,2.53.63,4.78,4.78,0,0,0,1.59-.29,4.84,4.84,0,0,0,1.31-.67,1.44,1.44,0,0,1,.81-.28,1.08,1.08,0,0,1,.76.26,1.13,1.13,0,0,1,.45.82.88.88,0,0,1-.4.78,6.77,6.77,0,0,1-2.11,1.1A7.6,7.6,0,0,1,122,56.06Z"/><path class="cls-2" d="M136.09,56.06a9.4,9.4,0,0,1-3.23-.53,6.41,6.41,0,0,1-2.32-1.36,1.11,1.11,0,0,1-.31-.92,1.19,1.19,0,0,1,.49-.83,1.29,1.29,0,0,1,1-.34,1.32,1.32,0,0,1,.83.43,3.91,3.91,0,0,0,1.37.89,5,5,0,0,0,2.08.41,4.21,4.21,0,0,0,2.22-.47,1.46,1.46,0,0,0,.78-1.22,1.54,1.54,0,0,0-.71-1.31,6.9,6.9,0,0,0-2.69-.89,8.06,8.06,0,0,1-3.66-1.5A3.16,3.16,0,0,1,130.79,46a3.06,3.06,0,0,1,.75-2.11,4.62,4.62,0,0,1,1.93-1.25,7.45,7.45,0,0,1,2.45-.41,7.8,7.8,0,0,1,2.92.52,5,5,0,0,1,2,1.46,1.12,1.12,0,0,1,.32.83.94.94,0,0,1-.42.74,1.27,1.27,0,0,1-1,.18,1.78,1.78,0,0,1-.93-.46,3.3,3.3,0,0,0-1.35-.82,5.63,5.63,0,0,0-1.67-.22,4.17,4.17,0,0,0-1.86.37,1.19,1.19,0,0,0-.77,1.1,1.43,1.43,0,0,0,.24.81,2,2,0,0,0,.94.65,12.84,12.84,0,0,0,2.05.57,10.83,10.83,0,0,1,3,.95A3.81,3.81,0,0,1,141,50.2a3.25,3.25,0,0,1,.48,1.76,3.76,3.76,0,0,1-.61,2.08,4.15,4.15,0,0,1-1.8,1.47A7,7,0,0,1,136.09,56.06Z"/><path class="cls-2" d="M146.22,40.06a1.66,1.66,0,1,1,1.16-.48A1.59,1.59,0,0,1,146.22,40.06Zm0,15.9a1.23,1.23,0,0,1-.91-.36,1.2,1.2,0,0,1-.37-.91V43.56a1.19,1.19,0,0,1,.37-.92,1.37,1.37,0,0,1,1.83,0,1.21,1.21,0,0,1,.35.92V54.69A1.22,1.22,0,0,1,146.22,56Z"/><path class="cls-2" d="M157.94,56.06a6.05,6.05,0,0,1-5.57-3.33,7.58,7.58,0,0,1-.83-3.59,7.18,7.18,0,0,1,.89-3.61,6.38,6.38,0,0,1,2.44-2.45,7.56,7.56,0,0,1,7.12,0,6.38,6.38,0,0,1,2.44,2.45,7.18,7.18,0,0,1,.89,3.61h-1.48a8.06,8.06,0,0,1-.76,3.59A6.05,6.05,0,0,1,161,55.18,5.35,5.35,0,0,1,157.94,56.06Zm.45,5.58a7.91,7.91,0,0,1-3.32-.7,7.1,7.1,0,0,1-2.63-2,1.08,1.08,0,0,1,.25-1.6,1.2,1.2,0,0,1,.94-.2,1.27,1.27,0,0,1,.79.5,4.65,4.65,0,0,0,1.7,1.33,5.56,5.56,0,0,0,2.32.47,4.38,4.38,0,0,0,2.22-.58,4.11,4.11,0,0,0,1.61-1.69,5.79,5.79,0,0,0,.6-2.75V50.81l.82-2.19,1.63.52v5.4a7.34,7.34,0,0,1-.88,3.59A6.64,6.64,0,0,1,162,60.69,6.88,6.88,0,0,1,158.39,61.64Zm.05-7.83a4.25,4.25,0,0,0,3.87-2.25,5.06,5.06,0,0,0,.56-2.42,5.2,5.2,0,0,0-.56-2.44A4.19,4.19,0,0,0,160.74,45a4.36,4.36,0,0,0-2.3-.6,4.41,4.41,0,0,0-2.3.6,4.26,4.26,0,0,0-1.57,1.66,5.09,5.09,0,0,0-.58,2.44,5,5,0,0,0,.58,2.42,4.25,4.25,0,0,0,3.87,2.25Z"/><path class="cls-2" d="M170.39,56a1.23,1.23,0,0,1-1.27-1.28V43.56a1.22,1.22,0,0,1,.36-.92,1.38,1.38,0,0,1,1.84,0,1.25,1.25,0,0,1,.35.92V54.71a1.28,1.28,0,0,1-.35.92A1.24,1.24,0,0,1,170.39,56Zm10.28,0a1.25,1.25,0,0,1-1.28-1.28V48.56a4.58,4.58,0,0,0-.52-2.32,3.31,3.31,0,0,0-1.41-1.34,4.63,4.63,0,0,0-2-.44,4.21,4.21,0,0,0-1.9.43A3.44,3.44,0,0,0,172.17,46a2.72,2.72,0,0,0-.5,1.64h-1.58a5.28,5.28,0,0,1,.77-2.82,5.45,5.45,0,0,1,2.08-2,6.17,6.17,0,0,1,3-.72,6.41,6.41,0,0,1,3.09.73,5.45,5.45,0,0,1,2.15,2.16,7.21,7.21,0,0,1,.78,3.5v6.15a1.25,1.25,0,0,1-.36.92A1.23,1.23,0,0,1,180.67,56Z"/><path class="cls-2" d="M202.77,56.21a10.71,10.71,0,0,1-4-.73,9.13,9.13,0,0,1-3.13-2.08,9.29,9.29,0,0,1-2-3.17,10.79,10.79,0,0,1-.73-4,10.62,10.62,0,0,1,.73-4,9.29,9.29,0,0,1,2-3.17,9.1,9.1,0,0,1,3.13-2.07,11.29,11.29,0,0,1,8,0A9.24,9.24,0,0,1,209.92,39,9.47,9.47,0,0,1,212,42.17a10.81,10.81,0,0,1,.72,4,11,11,0,0,1-.72,4,9.47,9.47,0,0,1-2.05,3.17,9.26,9.26,0,0,1-3.14,2.08A10.6,10.6,0,0,1,202.77,56.21Zm0-2.34a7.53,7.53,0,0,0,3-.59,7.33,7.33,0,0,0,2.36-1.63,7.09,7.09,0,0,0,1.54-2.44,8.87,8.87,0,0,0,0-6,7.07,7.07,0,0,0-3.9-4.05,8,8,0,0,0-6,0,6.89,6.89,0,0,0-2.35,1.61,7.4,7.4,0,0,0-1.54,2.44,8.57,8.57,0,0,0,0,6,7.4,7.4,0,0,0,1.54,2.44,7.08,7.08,0,0,0,2.35,1.63A7.49,7.49,0,0,0,202.77,53.87Z"/><path class="cls-2" d="M222.72,56.06a6.88,6.88,0,0,1-3.56-.91,6.53,6.53,0,0,1-2.45-2.47,7,7,0,0,1-.89-3.54,7.32,7.32,0,0,1,.87-3.6,6.45,6.45,0,0,1,2.4-2.46,6.87,6.87,0,0,1,3.5-.89,6.42,6.42,0,0,1,2.7.56,6.53,6.53,0,0,1,2.2,1.69.87.87,0,0,1,.25.82,1.24,1.24,0,0,1-.55.75.92.92,0,0,1-.77.17,1.58,1.58,0,0,1-.78-.44,4,4,0,0,0-3-1.3,4.29,4.29,0,0,0-2.25.59,4,4,0,0,0-1.52,1.64,5.2,5.2,0,0,0-.55,2.47,5.06,5.06,0,0,0,.56,2.4,4.24,4.24,0,0,0,3.89,2.27,5.05,5.05,0,0,0,1.53-.21,3.62,3.62,0,0,0,1.22-.66,1.43,1.43,0,0,1,.82-.36,1,1,0,0,1,.75.23,1.23,1.23,0,0,1,.48.79,1,1,0,0,1-.3.79A6.33,6.33,0,0,1,222.72,56.06Z"/><path class="cls-2" d="M238,56.06a7.54,7.54,0,0,1-3.69-.88,6.45,6.45,0,0,1-2.52-2.45,7,7,0,0,1-.92-3.59,7.28,7.28,0,0,1,.87-3.61,6.3,6.3,0,0,1,2.38-2.45,6.87,6.87,0,0,1,3.5-.89,6.3,6.3,0,0,1,3.35.86,5.61,5.61,0,0,1,2.14,2.38,7.89,7.89,0,0,1,.74,3.49,1,1,0,0,1-.33.78,1.12,1.12,0,0,1-.82.31H232.59V48h10l-1,.7a5.49,5.49,0,0,0-.5-2.23,3.81,3.81,0,0,0-1.35-1.56,3.75,3.75,0,0,0-2.13-.58,4.57,4.57,0,0,0-2.43.62,4,4,0,0,0-1.54,1.72,5.56,5.56,0,0,0-.53,2.46,4.75,4.75,0,0,0,.63,2.45,4.53,4.53,0,0,0,1.72,1.7,5,5,0,0,0,2.53.63,4.87,4.87,0,0,0,1.59-.29,5,5,0,0,0,1.31-.67,1.44,1.44,0,0,1,.81-.28,1.08,1.08,0,0,1,.76.26,1.13,1.13,0,0,1,.45.82.88.88,0,0,1-.4.78,6.77,6.77,0,0,1-2.11,1.1A7.65,7.65,0,0,1,238,56.06Z"/><path class="cls-2" d="M252.27,56.06a6,6,0,0,1-3.28-.91,6.46,6.46,0,0,1-2.28-2.47,7.35,7.35,0,0,1-.84-3.54,6.92,6.92,0,0,1,.91-3.55,6.73,6.73,0,0,1,2.48-2.49,6.88,6.88,0,0,1,9.47,2.49,6.92,6.92,0,0,1,.91,3.55h-1a7.35,7.35,0,0,1-.84,3.54,6.49,6.49,0,0,1-2.29,2.47A6,6,0,0,1,252.27,56.06Zm.5-2.25A4.22,4.22,0,0,0,255,53.2a4.38,4.38,0,0,0,1.58-1.67,5.34,5.34,0,0,0,0-4.8A4.41,4.41,0,0,0,255,45.05a4.51,4.51,0,0,0-4.53,0,4.38,4.38,0,0,0-1.6,1.68,5.18,5.18,0,0,0,0,4.8,4.35,4.35,0,0,0,1.6,1.67A4.23,4.23,0,0,0,252.77,53.81Zm5.6,2.18a1.25,1.25,0,0,1-1.28-1.28V50.89l.48-2.65,2.07.9v5.57A1.23,1.23,0,0,1,258.37,56Z"/><path class="cls-2" d="M264.72,56a1.27,1.27,0,0,1-.92-.36,1.25,1.25,0,0,1-.36-.92V43.56a1.22,1.22,0,0,1,.36-.92,1.3,1.3,0,0,1,.92-.35,1.25,1.25,0,0,1,.92.35,1.21,1.21,0,0,1,.35.92V54.71a1.24,1.24,0,0,1-.35.92A1.22,1.22,0,0,1,264.72,56ZM275,56a1.23,1.23,0,0,1-1.27-1.28V48.56a4.58,4.58,0,0,0-.53-2.32,3.31,3.31,0,0,0-1.41-1.34,4.57,4.57,0,0,0-2-.44,4.25,4.25,0,0,0-1.9.43A3.59,3.59,0,0,0,266.49,46a2.79,2.79,0,0,0-.5,1.64h-1.57a5.27,5.27,0,0,1,.76-2.82,5.48,5.48,0,0,1,2.09-2,6.1,6.1,0,0,1,3-.72,6.41,6.41,0,0,1,3.09.73,5.32,5.32,0,0,1,2.15,2.16,7.21,7.21,0,0,1,.79,3.5v6.15a1.25,1.25,0,0,1-.36.92A1.27,1.27,0,0,1,275,56Z"/></g><path class="cls-3" d="M33.4,66.9a32.72,32.72,0,0,1-12-2.2,3,3,0,0,1,2.2-5.6A27.45,27.45,0,1,0,33.4,6a27,27,0,0,0-9.8,1.8,3.07,3.07,0,0,1-3.9-1.7,3.07,3.07,0,0,1,1.7-3.9A32.72,32.72,0,0,1,33.4,0a33.45,33.45,0,0,1,0,66.9Z"/><path class="cls-4" d="M6.7,44.2H3a3,3,0,0,1,0-6H6.7a4.7,4.7,0,0,0,0-9.4H3a3,3,0,0,1,0-6H6.7a10.7,10.7,0,0,1,0,21.4Z"/></g></g></g></g></svg>