<svg xmlns="http://www.w3.org/2000/svg" viewBox="0 0 256.1 66.89"><defs><style>.cls-1{font-size:22px;fill:#3a3a3a;}.cls-2{letter-spacing:-0.02em;}.cls-3{fill:#084c76;}.cls-4{fill:#3382b9;}</style></defs><title>svg-logo</title><g id="Layer_2" data-name="Layer 2"><g id="Layer_1-2" data-name="Layer 1"><text class="cls-1" font-family="'Comfortaa', sans-serif" transform="translate(93.77 26.86)" font-weight="300">Studio<tspan x="0" y="26.4" font-weight="700">Design Ocean</tspan></text><path class="cls-3" d="M33.44,66.89a33,33,0,0,1-12-2.23,3,3,0,0,1,2.17-5.6,27.08,27.08,0,0,0,9.83,1.82A27.44,27.44,0,0,0,33.44,6a27,27,0,0,0-9.83,1.82,3,3,0,0,1-2.17-5.6A33,33,0,0,1,33.44,0a33.45,33.45,0,0,1,0,66.89Z"/><path class="cls-4" d="M6.72,44.15H3a3,3,0,0,1,0-6H6.72a4.69,4.69,0,1,0,0-9.38H3a3,3,0,0,1,0-6H6.72a10.7,10.7,0,1,1,0,21.4Z"/></g></g></svg>